<svg width="60" height="39" viewBox="0 0 60 39" fill="none" xmlns="http://www.w3.org/2000/svg">
<path fill-rule="evenodd" clip-rule="evenodd" d="M37.2089 12.0678C37.4551 12.9838 37.706 14.6603 36.916 16.9295C36.1956 18.9984 34.2263 22.8338 33.4391 24.6605C33.1066 25.4323 32.2126 27.1819 32.0025 28.6534C31.5284 31.9719 33.2016 32.9049 33.4468 33.0495C35.3549 34.1746 37.3595 31.322 39.4513 29.3626C40.2651 28.6003 43.5648 24.9178 50.2024 18.313C51.4697 17.052 51.5657 17.0162 51.63 16.6084C52.0386 14.0228 50.137 11.4841 47.7833 13.0002C46.9057 13.5655 36.5589 24.5441 34.1668 26.6123C34.1319 26.6423 33.9177 26.5169 33.9654 26.428C34.1175 26.1439 36.6812 20.5469 37.5322 18.5294C38.2598 16.8035 38.3333 16.5525 38.6229 14.9647C38.7703 14.1562 39.0009 13.9089 39.6919 13.2526C39.861 13.0919 43.5765 9.3939 43.6784 9.25588C44.4551 8.20163 43.366 3.51399 40.2595 5.06801C39.437 5.47958 26.7342 18.7108 26.601 18.7689C26.5381 18.7964 26.4381 18.718 26.4033 18.6662C26.3427 18.576 29.0403 12.8775 29.8501 11.0284C30.6094 9.29415 31.0086 8.7397 31.2231 6.47019C31.2564 6.11663 31.2811 6.09635 33.6249 3.76318C35.5115 1.88506 37.7516 -0.947529 41.0072 0.313053C41.8389 0.634911 44.5731 2.34013 45.0282 5.72231C45.0777 6.09017 45.1411 6.94056 45.1731 7.61881C45.2267 8.74887 46.1765 6.98176 48.9846 8.18276C49.6912 8.48492 52.4553 10.2831 52.799 13.4487C52.8556 13.9706 52.8975 14.7687 52.8995 14.8437C52.9008 14.8906 52.7925 15.8419 53.3719 15.1503C53.3957 15.1219 54.3427 14.1737 54.3853 14.1377C55.0013 13.6158 55.0343 14.2379 59.3139 18.8659C60.1592 19.7799 60.1277 19.7126 59.7315 20.1105C59.2943 20.5493 59.2759 20.6263 58.8686 20.3359C58.5741 20.126 57.5521 19.341 56.2683 19.9714C55.7468 20.2275 47.5947 28.9243 42.255 34.1947C40.2689 36.1553 38.3106 38.6532 35.3245 37.9046C33.5841 37.4683 31.6704 35.7149 30.9067 33.6572C30.3118 32.0546 30.18 31.1747 30.9153 28.5391C31.2249 27.429 34.6473 20.1364 35.2317 18.9161C36.2407 16.8092 36.1794 15.2069 36.0779 14.7068C36.0686 14.6612 36.059 14.6247 36.0499 14.598C35.4643 12.8832 34.5558 12.9984 34.9703 12.5789C35.0708 12.4771 35.0711 12.4791 36.2021 11.2835C36.6315 10.8294 36.9037 10.9318 37.2089 12.0678Z" fill="#F5F0E9"/>
<path fill-rule="evenodd" clip-rule="evenodd" d="M22.7909 25.9729C22.5447 25.0569 22.2937 23.3804 23.0838 21.1113C23.8041 19.0424 25.7735 15.2069 26.5607 13.3802C26.8931 12.6084 27.7872 10.8588 27.9973 9.38734C28.4714 6.06876 26.7982 5.13582 26.5529 4.99123C24.6449 3.86613 22.6403 6.71875 20.5484 8.67811C19.7347 9.44045 16.435 13.1229 9.79734 19.7277C8.53005 20.9887 8.43411 21.0245 8.36973 21.4323C7.9612 24.0179 9.86275 26.5566 12.2165 25.0405C13.0941 24.4752 23.4408 13.4966 25.833 11.4284C25.8678 11.3984 26.082 11.5238 26.0344 11.6128C25.8823 11.8968 23.3185 17.4938 22.4676 19.5114C21.7399 21.2372 21.6664 21.4882 21.3769 23.0761C21.2295 23.8845 20.9989 24.1318 20.3079 24.7881C20.1388 24.9489 16.4232 28.6468 16.3214 28.7848C15.5447 29.8391 16.6338 34.5267 19.7402 32.9727C20.5628 32.5611 33.2656 19.33 33.3988 19.2718C33.4617 19.2443 33.5617 19.3227 33.5964 19.3745C33.657 19.4647 30.9594 25.1632 30.1497 27.0123C29.3903 28.7466 28.9912 29.301 28.7767 31.5705C28.7434 31.9241 28.7187 31.9444 26.3748 34.2775C24.4882 36.1557 22.2482 38.9882 18.9925 37.7277C18.1609 37.4058 15.4266 35.7006 14.9716 32.3184C14.922 31.9505 14.8587 31.1002 14.8266 30.4219C14.7731 29.2919 13.8232 31.0589 11.0152 29.8579C10.3086 29.5558 7.54444 27.7576 7.20077 24.5921C7.14413 24.0701 7.10229 23.272 7.10028 23.197C7.09901 23.1501 7.20724 22.1988 6.62786 22.8904C6.60405 22.9188 5.65704 23.867 5.61447 23.903C4.99843 24.4249 4.96546 23.8028 0.685866 19.1748C-0.15947 18.2608 -0.127916 18.3281 0.268318 17.9302C0.705513 17.4914 0.723887 17.4144 1.13115 17.7048C1.42571 17.9147 2.44763 18.6997 3.73153 18.0693C4.25295 17.8132 12.4051 9.11644 17.7448 3.84599C19.7309 1.88549 21.6892 -0.612492 24.6753 0.136124C26.4157 0.572437 28.3294 2.32582 29.0931 4.38358C29.688 5.9861 29.8198 6.86603 29.0845 9.50164C28.7748 10.6118 25.3524 17.9043 24.7681 19.1246C23.7591 21.2315 23.8204 22.8339 23.9219 23.3339C23.9311 23.3795 23.9407 23.416 23.9499 23.4428C24.5355 25.1575 25.444 25.0423 25.0294 25.4618C24.929 25.5637 24.9287 25.5616 23.7977 26.7573C23.3682 27.2113 23.0961 27.1089 22.7909 25.9729Z" fill="#F5F0E9"/>
</svg>
